<svg xmlns="http://www.w3.org/2000/svg" viewBox="0 0 5187 980">
<g transform="translate(-1,740) scale(1,-1)">
<g fill="#0A0A0A"><path transform="translate(0,0)" d="M226.27484130859375 -14Q173.62481689453125 -14 131.71231079101562 4.32501220703125Q89.7998046875 22.6500244140625 65.38729858398438 57.887542724609375Q40.97479248046875 93.12506103515625 40.97479248046875 143.60009765625Q40.97479248046875 194.2501220703125 65.38729858398438 228.31265258789062Q89.7998046875 262.37518310546875 132.86233520507812 279.6127014160156Q175.92486572265625 296.8502197265625 230.87493896484375 296.8502197265625H374.22442626953125V326.77508544921875Q374.22442626953125 365.97479248046875 350.12457275390625 390.3121643066406Q326.02471923828125 414.6495361328125 275.0499267578125 414.6495361328125Q225.07513427734375 414.6495361328125 199.53781127929688 391.399658203125Q174.00048828125 368.1497802734375 165.9505615234375 330.82501220703125L60.099853515625 365.97528076171875Q72.099853515625 404.8502197265625 98.51235961914062 436.87518310546875Q124.92486572265625 468.900146484375 169.16238403320312 488.57513427734375Q213.39990234375 508.2501220703125 276.699951171875 508.2501220703125Q373.6500244140625 508.2501220703125 429.5126037597656 459.42510986328125Q485.37518310546875 410.60009765625 485.37518310546875 318.82501220703125V124.900634765625Q485.37518310546875 94.900634765625 513.3751831054688 94.900634765625H554.60009765625V0H474.099853515625Q438.1497802734375 0 415.19970703125 18.087493896484375Q392.2496337890625 36.17498779296875 392.2496337890625 66.52496337890625V68.57489013671875H374.82452392578125Q369.2496337890625 54.82501220703125 354.1122131347656 35.062530517578125Q338.97479248046875 15.300048828125 308.4498291015625 0.6500244140625Q277.92486572265625 -14 226.27484130859375 -14ZM245.12506103515625 79.6005859375Q302.32476806640625 79.6005859375 338.27459716796875 112.07537841796875Q374.22442626953125 144.5501708984375 374.22442626953125 199.8497314453125V210.19970703125H238.47503662109375Q200.500244140625 210.19970703125 177.96292114257812 193.88729858398438Q155.42559814453125 177.57489013671875 155.42559814453125 147.07513427734375Q155.42559814453125 116.57537841796875 178.96292114257812 98.08798217773438Q202.500244140625 79.6005859375 245.12506103515625 79.6005859375Z"/><path transform="translate(557,0)" d="M73.1497802734375 0V494.2501220703125H185.6005859375V437.37518310546875H202.5506591796875Q214.07562255859375 467.900146484375 239.92559814453125 482.07513427734375Q265.77557373046875 496.2501220703125 302.400390625 496.2501220703125H361.87542724609375V394.0494384765625H299.52545166015625Q250.300537109375 394.0494384765625 218.9505615234375 367.5870056152344Q187.6005859375 341.12457275390625 187.6005859375 285.8497314453125V0Z"/><path transform="translate(928,0)" d="M73.1497802734375 0V700H187.6005859375V306.87542724609375H204.5506591796875L383.42462158203125 494.2501220703125H534.1255493164062L294.80126953125 254.77508544921875L542.1255493164062 0H393.2496337890625L204.5506591796875 200.8497314453125H187.6005859375V0Z"/><path transform="translate(1466,0)" d="M128.37469482421875 -200V-99.79931640625H400.82452392578125Q429.17449951171875 -99.79931640625 429.17449951171875 -69.79931640625V68.32476806640625H412.22442626953125Q403.52447509765625 50.099853515625 385.7370300292969 32.312408447265625Q367.9495849609375 14.52496337890625 337.9871520996094 3.087493896484375Q308.02471923828125 -8.3499755859375 261.7998046875 -8.3499755859375Q204.8497314453125 -8.3499755859375 161.17474365234375 17.362579345703125Q117.499755859375 43.07513427734375 93.06228637695312 89.5501708984375Q68.62481689453125 136.02520751953125 68.62481689453125 198.07513427734375V494.2501220703125H183.07562255859375V207.02520751953125Q183.07562255859375 147.00048828125 212.76296997070312 117.77557373046875Q242.4503173828125 88.5506591796875 296.2501220703125 88.5506591796875Q357.22491455078125 88.5506591796875 392.37469482421875 128.88803100585938Q427.52447509765625 169.22540283203125 427.52447509765625 243.6500244140625V494.2501220703125H541.9752807617188V-94.299560546875Q541.9752807617188 -142.67474365234375 513.8126525878906 -171.33737182617188Q485.6500244140625 -200 437.57489013671875 -200Z"/><path transform="translate(2061,0)" d="M260.699951171875 0Q213.4498291015625 0 184.87469482421875 28.662628173828125Q156.299560546875 57.32525634765625 156.299560546875 105.700439453125V398.99951171875H26.699951171875V494.2501220703125H156.299560546875V653.1497802734375H270.7503662109375V494.2501220703125H412.699951171875V398.99951171875H270.7503662109375V125.2506103515625Q270.7503662109375 95.2506103515625 299.100341796875 95.2506103515625H398.2501220703125V0Z"/><path transform="translate(2498,0)" d="M298.7998046875 -14Q224.62481689453125 -14 168.2998046875 17.5Q111.97479248046875 49 80.56228637695312 106.41250610351562Q49.1497802734375 163.82501220703125 49.1497802734375 241.12506103515625V253.12506103515625Q49.1497802734375 330.60009765625 80.1497802734375 387.92510986328125Q111.1497802734375 445.2501220703125 166.88729858398438 476.7501220703125Q222.62481689453125 508.2501220703125 295.92486572265625 508.2501220703125Q368.0499267578125 508.2501220703125 421.7874450683594 476.4500732421875Q475.52496337890625 444.6500244140625 505.52496337890625 387.8499755859375Q535.5249633789062 331.0499267578125 535.5249633789062 255.39990234375V214.32476806640625H165.2506103515625Q167.42559814453125 156.32525634765625 206.31289672851562 121.26296997070312Q245.2001953125 86.20068359375 302.099853515625 86.20068359375Q357.72467041015625 86.20068359375 384.9120178222656 110.6005859375Q412.099365234375 135.00048828125 426.32427978515625 165.97528076171875L520.7498779296875 117.22491455078125Q506.57489013671875 90 480.07489013671875 59.32501220703125Q453.57489013671875 28.6500244140625 409.92486572265625 7.32501220703125Q366.27484130859375 -14 298.7998046875 -14ZM166.2506103515625 300.97528076171875H419.2491455078125Q415.2491455078125 350.27484130859375 381.8618469238281 379.1621398925781Q348.47454833984375 408.0494384765625 295.099853515625 408.0494384765625Q240.2501220703125 408.0494384765625 207.100341796875 379.1621398925781Q173.9505615234375 350.27484130859375 166.2506103515625 300.97528076171875Z"/><path transform="translate(3059,0)" d="M304.22491455078125 -14Q232.39990234375 -14 174.42486572265625 16.087493896484375Q116.4498291015625 46.17498779296875 82.7998046875 103.17498779296875Q49.1497802734375 160.17498779296875 49.1497802734375 240.47503662109375V253.77508544921875Q49.1497802734375 334.2501220703125 82.7998046875 391.1626281738281Q116.4498291015625 448.07513427734375 174.42486572265625 478.1626281738281Q232.39990234375 508.2501220703125 304.22491455078125 508.2501220703125Q375.0499267578125 508.2501220703125 425.6124572753906 482.9876403808594Q476.17498779296875 457.72515869140625 506.97503662109375 414.400146484375Q537.7750854492188 371.07513427734375 547.2501220703125 317.47503662109375L436.27435302734375 293.92486572265625Q432.099365234375 325.499755859375 417.0494384765625 350.9871520996094Q401.99951171875 376.47454833984375 374.6621398925781 391.4369812011719Q347.32476806640625 406.3994140625 306.699951171875 406.3994140625Q266.07513427734375 406.3994140625 233.56277465820312 388.49951171875Q201.0504150390625 370.599609375 182.32550048828125 335.999755859375Q163.6005859375 301.39990234375 163.6005859375 251.9500732421875V242.300048828125Q163.6005859375 192.8502197265625 182.32550048828125 158.2503662109375Q201.0504150390625 123.6505126953125 233.56277465820312 105.7506103515625Q266.07513427734375 87.8507080078125 306.699951171875 87.8507080078125Q367.72467041015625 87.8507080078125 399.4120178222656 119.4505615234375Q431.099365234375 151.0504150390625 439.4493408203125 201.1502685546875L550.4251098632812 175.12506103515625Q538.1250610351562 123.17498779296875 507.1500244140625 79.8499755859375Q476.17498779296875 36.52496337890625 425.6124572753906 11.262481689453125Q375.0499267578125 -14 304.22491455078125 -14Z"/><path transform="translate(3628,0)" d="M73.1497802734375 0V700H187.6005859375V429.0504150390625H204.5506591796875Q213.2506103515625 446.4503173828125 231.03805541992188 463.4127502441406Q248.82550048828125 480.37518310546875 278.37542724609375 491.400146484375Q307.92535400390625 502.42510986328125 353.32525634765625 502.42510986328125Q410.4503173828125 502.42510986328125 454.0378112792969 476.7125549316406Q497.62530517578125 451 522.0627746582031 404.9374694824219Q546.500244140625 358.87493896484375 546.500244140625 296V0H432.0494384765625V287.0499267578125Q432.0494384765625 347.2496337890625 402.3620910644531 376.3870544433594Q372.67474365234375 405.52447509765625 318.87493896484375 405.52447509765625Q257.900146484375 405.52447509765625 222.7503662109375 365.1871032714844Q187.6005859375 324.8497314453125 187.6005859375 250.42510986328125V0Z"/><path transform="translate(4223,0)" d="M276.87493896484375 -14Q181.4498291015625 -14 119.36233520507812 28.0Q57.27484130859375 70 44.099853515625 151.32476806640625L150.12554931640625 178Q157.300537109375 139.8502197265625 175.200439453125 118.01284790039062Q193.100341796875 96.17547607421875 219.52520751953125 86.88803100585938Q245.9500732421875 77.6005859375 276.87493896484375 77.6005859375Q323.67474365234375 77.6005859375 347.3870544433594 94.67547607421875Q371.099365234375 111.7503662109375 371.099365234375 138.2501220703125Q371.099365234375 164.92486572265625 348.5620422363281 178.21231079101562Q326.02471923828125 191.499755859375 279.7498779296875 199.8497314453125L248.60009765625 205.37469482421875Q197.6500244140625 215.02471923828125 155.699951171875 232.3497314453125Q113.7498779296875 249.67474365234375 88.53732299804688 280.1497802734375Q63.32476806640625 310.62481689453125 63.32476806640625 358.39990234375Q63.32476806640625 430.47503662109375 116.53732299804688 469.3625793457031Q169.7498779296875 508.2501220703125 256.699951171875 508.2501220703125Q339.699951171875 508.2501220703125 393.9125061035156 471.1626281738281Q448.12506103515625 434.07513427734375 464.42510986328125 372.1502685546875L358.099365234375 340.3499755859375Q349.7493896484375 381.8497314453125 322.97454833984375 399.2496337890625Q296.19970703125 416.6495361328125 256.699951171875 416.6495361328125Q217.37518310546875 416.6495361328125 195.92535400390625 402.6621398925781Q174.47552490234375 388.67474365234375 174.47552490234375 363.3499755859375Q174.47552490234375 336.5501708984375 196.22540283203125 323.82525634765625Q217.97528076171875 311.100341796875 255.12506103515625 304.57537841796875L286.27484130859375 299.0504150390625Q341.22491455078125 289.400390625 385.7624816894531 273.07537841796875Q430.300048828125 256.7503662109375 456.27508544921875 226.68783569335938Q482.2501220703125 196.62530517578125 482.2501220703125 145.67523193359375Q482.2501220703125 69.2501220703125 426.5375671386719 27.62506103515625Q370.82501220703125 -14 276.87493896484375 -14Z"/></g>
<rect x="4848" y="-15" width="300" height="125" rx="36" fill="#C4502E"/>
</g></svg>
